<?xml version="1.0" encoding="utf-8"?>
<!-- Generator: Adobe Illustrator 17.0.0, SVG Export Plug-In . SVG Version: 6.00 Build 0)  -->
<!DOCTYPE svg PUBLIC "-//W3C//DTD SVG 1.1//EN" "http://www.w3.org/Graphics/SVG/1.1/DTD/svg11.dtd">
<svg version="1.1" id="Layer" xmlns="http://www.w3.org/2000/svg" xmlns:xlink="http://www.w3.org/1999/xlink" x="0px" y="0px"
	 width="30px" height="30px" viewBox="80.413 -2.5 30 30" enable-background="new 80.413 -2.5 30 30" xml:space="preserve">
<path fill="#9036FE" d="M95.36,9.04c-2.424,0-4.392,1.967-4.392,4.392s1.967,4.392,4.392,4.392c2.424,0,4.392-1.967,4.392-4.392
	S97.784,9.04,95.36,9.04z M95.36,18.701c-2.907,0-5.27-2.363-5.27-5.27s2.363-5.27,5.27-5.27s5.27,2.363,5.27,5.27
	S98.267,18.701,95.36,18.701z M95.36,6.405c-3.882,0-7.026,3.144-7.026,7.026s3.144,7.026,7.026,7.026
	c3.882,0,7.026-3.144,7.026-7.026S99.242,6.405,95.36,6.405z M95.36,21.336c-4.365,0-7.905-3.54-7.905-7.905s3.54-7.905,7.905-7.905
	c4.365,0,7.905,3.54,7.905,7.905S99.725,21.336,95.36,21.336z M105.9,2.892c0-0.483-0.395-0.878-0.878-0.878h-1.757
	c-0.483,0-0.878,0.395-0.878,0.878v1.757c0,0.483,0.395,0.878,0.878,0.878h1.757c0.483,0,0.878-0.395,0.878-0.878V2.892z
	 M105.461,6.405h-2.635c-0.729,0-1.317-0.588-1.317-1.317V2.452c0-0.729,0.588-1.317,1.317-1.317h2.635
	c0.729,0,1.317,0.588,1.317,1.317v2.635C106.778,5.816,106.19,6.405,105.461,6.405z M104.143,23.971H86.577
	c-1.458,0-2.635-1.177-2.635-2.635V9.04h3.821c-0.167,0.281-0.316,0.58-0.448,0.878h-2.494v11.418c0,0.966,0.79,1.757,1.757,1.757
	h17.566c0.966,0,1.757-0.79,1.757-1.757V9.918h-2.494c-0.132-0.299-0.281-0.597-0.448-0.878h3.821v12.296
	C106.778,22.794,105.601,23.971,104.143,23.971z M108.535,3.77c0-2.424-1.967-4.392-4.392-4.392H86.577
	c-2.424,0-4.392,1.967-4.392,4.392v17.566c0,2.424,1.967,4.392,4.392,4.392h17.566c2.424,0,4.392-1.967,4.392-4.392V3.77z
	 M104.143,26.606H86.577c-2.907,0-5.27-2.363-5.27-5.27V3.77c0-2.907,2.363-5.27,5.27-5.27h17.566c2.907,0,5.27,2.363,5.27,5.27
	v17.566C109.413,24.243,107.051,26.606,104.143,26.606z"/>
<path fill="#9036FE" d="M19.222,0.485c-3.441,0-6.248,2.932-6.248,6.546v0.202C9.446,6.733,6.188,4.82,3.91,1.879
	c-0.173-0.24-0.452-0.375-0.75-0.375l-0.077,0.01c-0.317,0.019-0.606,0.202-0.759,0.49c-0.548,0.99-0.836,2.124-0.836,3.268
	c0,1.067,0.25,2.095,0.702,3.009C2.103,8.299,2.016,8.338,1.93,8.386C1.641,8.549,1.449,8.857,1.449,9.203V9.29
	c0,1.922,0.807,3.691,2.115,4.912l-0.019,0.01c-0.221,0.25-0.298,0.606-0.202,0.932c0.557,1.836,1.846,3.287,3.47,4.018
	c-1.288,0.663-2.711,1-4.181,1c-0.384,0-0.769-0.019-1.153-0.067l-0.115-0.01c-0.394,0-0.75,0.25-0.894,0.625
	c-0.154,0.423,0,0.884,0.365,1.134c2.586,1.749,5.575,2.672,8.641,2.672c6.036,0,9.804-2.999,11.909-5.517
	c2.605-3.114,4.104-7.248,4.104-11.323V7.406c0.961-0.798,1.788-1.749,2.47-2.826c0.231-0.356,0.192-0.827-0.087-1.153
	c-0.183-0.211-0.452-0.327-0.721-0.327c-0.058,0-0.115,0.01-0.183,0.019c0.154-0.317,0.288-0.644,0.384-0.98
	c0.115-0.384-0.01-0.798-0.327-1.048c-0.173-0.135-0.375-0.202-0.586-0.202c-0.173,0-0.346,0.048-0.5,0.154
	c-0.798,0.5-1.653,0.865-2.557,1.105C22.25,1.081,20.76,0.485,19.222,0.485z M19.222,1.446c1.519,0,2.893,0.682,3.864,1.759
	c1.202-0.25,2.336-0.711,3.355-1.355c-0.394,1.307-1.23,2.403-2.326,3.095c1.077-0.135,2.095-0.442,3.037-0.884
	c-0.702,1.125-1.605,2.105-2.634,2.893c0.01,0.24,0.01,0.481,0.01,0.721c0,7.373-5.316,15.879-15.053,15.879
	c-2.989,0-5.767-0.923-8.113-2.509c0.413,0.048,0.836,0.077,1.269,0.077c2.47,0,4.758-0.894,6.565-2.384
	c-2.317-0.048-4.268-1.663-4.941-3.883c0.327,0.067,0.654,0.106,1,0.106c0.481,0,0.942-0.067,1.394-0.202
	C4.227,14.249,2.4,11.991,2.4,9.29V9.222c0.711,0.413,1.528,0.663,2.393,0.692c-1.413-1-2.355-2.701-2.355-4.643
	c0-1.019,0.269-1.98,0.721-2.807c2.615,3.383,6.507,5.604,10.91,5.835c-0.096-0.413-0.144-0.836-0.144-1.269
	C13.925,3.945,16.3,1.446,19.222,1.446z"/>
<path fill="#9036FE" d="M66.987,3.704c0-2.394-1.943-4.336-4.336-4.336H45.305c-2.394,0-4.336,1.943-4.336,4.336V21.05
	c0,2.394,1.943,4.336,4.336,4.336h8.656v-8.664l-2.585-0.009v-4.336l2.593,0.009l0.009-3.478c0-1.353,0.971-3.469,3.469-3.469h0.33
	c4.033,0,3.964,0.009,3.964,0.009v4.336h-2.637c0,0-0.833,0.009-0.833,0.867v1.735l2.645-0.009v4.336h-2.602v8.673h4.336
	c2.394,0,4.336-1.943,4.336-4.336L66.987,3.704L66.987,3.704z M60.049,15.846v-2.602l-1.778,0.009H57.43v-0.867v-1.735
	c0-1.11,0.859-1.726,1.657-1.735h1.821V6.306h-3.46c-1.379,0-2.602,1.197-2.602,2.602v4.336h-2.602v2.602h2.602l-0.052,9.54h2.654
	v-9.54H60.049z M62.651,26.253H45.305c-2.871,0-5.204-2.333-5.204-5.204V3.704c0-2.871,2.333-5.204,5.204-5.204h17.346
	c2.871,0,5.204,2.333,5.204,5.204V21.05C67.854,23.92,65.521,26.253,62.651,26.253z"/>
</svg>
